# xmcd
#
# Track frame offsets:
#     150
#     19425
#     36637
#     50387
#     66830
#     86250
#     100542
#     108792
#     122290
#     148472
#     163782
#     176457
#     191642
#     211577
#     228685
#     243525
#     262277
#     276807
# Disc length: 3926 seconds
#
# Submitted via: Sonic_Foundry_SIREN_Jukebox v2.0pl249
#
# Revision: 1
# Processed by: cddbd v1.4b41PL1 Copyright (c) Steve Scherf et al.
#
DISCID=050f5412
DTITLE=Skip Gorman - Lonesome Prarie Love
DYEAR=1900
DGENRE=
TTITLE0=Colorado Trail
TTITLE1=I'd like to be in Texas
TTITLE2=Tough and Wild
TTITLE3=Brazos River Song
TTITLE4=Rye Whiskey
TTITLE5=Snag-Toothed Sal
TTITLE6=Cross-Eyed Gal
TTITLE7=Maid of Argenta
TTITLE8=The Lonely Cowboy
TTITLE9=My Old Waddy Pal
TTITLE10=Sally Goodin
TTITLE11=The Night Guard
TTITLE12=Mexicali Rose
TTITLE13=Border Affair
TTITLE14=Pretty Pauline
TTITLE15=Longside the Santa Fe Trail
TTITLE16=Kissin' on the Sly
TTITLE17=Pindale/Black Hills Walzes
EXTD=
EXTT0=
EXTT1=
EXTT2=
EXTT3=
EXTT4=
EXTT5=
EXTT6=
EXTT7=
EXTT8=
EXTT9=
EXTT10=
EXTT11=
EXTT12=
EXTT13=
EXTT14=
EXTT15=
EXTT16=
EXTT17=
PLAYORDER=
